# xmcd
#
# Track frame offsets: 
#        150
#        14733
#        28913
#        44438
#        55590
#        70760
#        85723
#        99923
#
# Disc length: 1563 seconds
#
# Revision: 2
# Processed by: cddbd v1.4PL0 Copyright (c) Steve Scherf et al.
# Submitted via: ExactAudioCopy v0.90b3
#
DISCID=5f061908
DTITLE=Earl Thomas Conley - Fire and Smoke
DYEAR=1900
DGENRE=Country
TTITLE0=Fire And Smoke
TTITLE1=Silent Treatment
TTITLE2=Smokey Mountain Memories
TTITLE3=This Time I've Hurt Her More
TTITLE4=Tell Me Why
TTITLE5=After The Love Slips Away
TTITLE6=Your Love Is Just For Strangers (I Suppose) 
TTITLE7=As Low As You Can Go
EXTD=
EXTT0=Earl Thomas Conley
EXTT1=
EXTT2=
EXTT3=
EXTT4=
EXTT5=
EXTT6=
EXTT7=
PLAYORDER=
